<mxfile host="app.diagrams.net" modified="2024-09-27T15:13:22.406Z" agent="Mozilla/5.0 (X11; Ubuntu; Linux x86_64; rv:130.0) Gecko/20100101 Firefox/130.0" etag="zHjGBamENxIqdSGsjRND" version="21.3.3" type="device">
  <diagram name="PÃ gina-1" id="g46RYpogiAM8ngN2JjXp">
    <mxGraphModel dx="1434" dy="822" grid="1" gridSize="10" guides="1" tooltips="1" connect="1" arrows="1" fold="1" page="1" pageScale="1" pageWidth="1169" pageHeight="827" math="0" shadow="0">
      <root>
        <mxCell id="0" />
        <mxCell id="1" parent="0" />
        <mxCell id="vOK00NILXzaMB6cu8Ia9-5" value="" style="rounded=1;whiteSpace=wrap;html=1;dashed=1;dashPattern=12 12;" parent="1" vertex="1">
          <mxGeometry x="150" y="290" width="120" height="280" as="geometry" />
        </mxCell>
        <mxCell id="1HyrMnBhpy3HkWfxnY-A-2" value="&lt;b&gt;Leaf area target&lt;/b&gt;" style="rounded=0;whiteSpace=wrap;html=1;fillColor=#6d8764;fontColor=#ffffff;strokeColor=#3A5431;" parent="1" vertex="1">
          <mxGeometry x="290" y="305" width="120" height="30" as="geometry" />
        </mxCell>
        <mxCell id="1HyrMnBhpy3HkWfxnY-A-3" value="" style="endArrow=classic;html=1;rounded=0;" parent="1" source="1HyrMnBhpy3HkWfxnY-A-11" target="1HyrMnBhpy3HkWfxnY-A-2" edge="1">
          <mxGeometry relative="1" as="geometry">
            <mxPoint x="370" y="255" as="sourcePoint" />
            <mxPoint x="470" y="255" as="targetPoint" />
          </mxGeometry>
        </mxCell>
        <mxCell id="1HyrMnBhpy3HkWfxnY-A-4" value="&lt;font style=&quot;font-size: 12px;&quot;&gt;Leaf biomass&lt;br&gt;allometric equations&lt;/font&gt;" style="edgeLabel;resizable=0;html=1;align=center;verticalAlign=middle;" parent="1HyrMnBhpy3HkWfxnY-A-3" connectable="0" vertex="1">
          <mxGeometry relative="1" as="geometry" />
        </mxCell>
        <mxCell id="1HyrMnBhpy3HkWfxnY-A-5" value="&lt;b&gt;Fine root biomass target&lt;/b&gt;" style="rounded=0;whiteSpace=wrap;html=1;fillColor=#6d8764;fontColor=#ffffff;strokeColor=#3A5431;" parent="1" vertex="1">
          <mxGeometry x="290" y="150" width="120" height="40" as="geometry" />
        </mxCell>
        <mxCell id="1HyrMnBhpy3HkWfxnY-A-6" value="" style="endArrow=classic;html=1;rounded=0;" parent="1" source="1HyrMnBhpy3HkWfxnY-A-2" target="1HyrMnBhpy3HkWfxnY-A-5" edge="1">
          <mxGeometry relative="1" as="geometry">
            <mxPoint x="310" y="240" as="sourcePoint" />
            <mxPoint x="410" y="240" as="targetPoint" />
          </mxGeometry>
        </mxCell>
        <mxCell id="1HyrMnBhpy3HkWfxnY-A-7" value="Fine root to leaf &lt;br&gt;area ratio" style="edgeLabel;resizable=0;html=1;align=center;verticalAlign=middle;" parent="1HyrMnBhpy3HkWfxnY-A-6" connectable="0" vertex="1">
          <mxGeometry relative="1" as="geometry" />
        </mxCell>
        <mxCell id="1HyrMnBhpy3HkWfxnY-A-8" value="&lt;b&gt;Sapwood area &lt;br&gt;target&lt;/b&gt;" style="rounded=0;whiteSpace=wrap;html=1;fillColor=#6d8764;fontColor=#ffffff;strokeColor=#3A5431;" parent="1" vertex="1">
          <mxGeometry x="290" y="434" width="120" height="40" as="geometry" />
        </mxCell>
        <mxCell id="1HyrMnBhpy3HkWfxnY-A-9" value="" style="endArrow=classic;html=1;rounded=0;" parent="1" source="1HyrMnBhpy3HkWfxnY-A-2" target="1HyrMnBhpy3HkWfxnY-A-8" edge="1">
          <mxGeometry relative="1" as="geometry">
            <mxPoint x="360" y="290" as="sourcePoint" />
            <mxPoint x="360" y="200" as="targetPoint" />
            <Array as="points">
              <mxPoint x="350" y="350" />
            </Array>
          </mxGeometry>
        </mxCell>
        <mxCell id="1HyrMnBhpy3HkWfxnY-A-10" value="&lt;i&gt;H&lt;sub&gt;v&lt;/sub&gt;&lt;/i&gt; or &lt;i&gt;K&lt;sub&gt;plant&lt;/sub&gt;&lt;/i&gt;" style="edgeLabel;resizable=0;html=1;align=center;verticalAlign=middle;" parent="1HyrMnBhpy3HkWfxnY-A-9" connectable="0" vertex="1">
          <mxGeometry relative="1" as="geometry">
            <mxPoint y="-5" as="offset" />
          </mxGeometry>
        </mxCell>
        <mxCell id="1HyrMnBhpy3HkWfxnY-A-11" value="&lt;b&gt;Forest structure&lt;/b&gt;" style="rounded=0;whiteSpace=wrap;html=1;fillColor=#6d8764;fontColor=#ffffff;strokeColor=#3A5431;" parent="1" vertex="1">
          <mxGeometry x="50" y="290" width="80" height="60" as="geometry" />
        </mxCell>
        <mxCell id="1HyrMnBhpy3HkWfxnY-A-12" value="&lt;b&gt;Sapwood&lt;br&gt;&amp;nbsp;senescence&lt;/b&gt;" style="rounded=0;whiteSpace=wrap;html=1;fillColor=#dae8fc;strokeColor=#6c8ebf;" parent="1" vertex="1">
          <mxGeometry x="780" y="435" width="80" height="40" as="geometry" />
        </mxCell>
        <mxCell id="1HyrMnBhpy3HkWfxnY-A-13" value="" style="endArrow=classic;html=1;rounded=0;" parent="1" source="1HyrMnBhpy3HkWfxnY-A-8" target="1HyrMnBhpy3HkWfxnY-A-12" edge="1">
          <mxGeometry width="50" height="50" relative="1" as="geometry">
            <mxPoint x="290" y="331" as="sourcePoint" />
            <mxPoint x="340" y="281" as="targetPoint" />
          </mxGeometry>
        </mxCell>
        <mxCell id="1HyrMnBhpy3HkWfxnY-A-14" value="&lt;b&gt;Leaf growth&lt;/b&gt;" style="rounded=0;whiteSpace=wrap;html=1;fillColor=#77da72;strokeColor=#537341;" parent="1" vertex="1">
          <mxGeometry x="478" y="306" width="110" height="30" as="geometry" />
        </mxCell>
        <mxCell id="1HyrMnBhpy3HkWfxnY-A-15" value="" style="endArrow=classic;html=1;rounded=0;" parent="1" source="1HyrMnBhpy3HkWfxnY-A-2" target="1HyrMnBhpy3HkWfxnY-A-14" edge="1">
          <mxGeometry width="50" height="50" relative="1" as="geometry">
            <mxPoint x="420" y="420" as="sourcePoint" />
            <mxPoint x="490" y="421" as="targetPoint" />
          </mxGeometry>
        </mxCell>
        <mxCell id="1HyrMnBhpy3HkWfxnY-A-16" value="&lt;b&gt;Fine root growth&lt;/b&gt;" style="rounded=0;whiteSpace=wrap;html=1;fillColor=#ffe6cc;strokeColor=#d79b00;" parent="1" vertex="1">
          <mxGeometry x="480" y="155" width="110" height="30" as="geometry" />
        </mxCell>
        <mxCell id="1HyrMnBhpy3HkWfxnY-A-17" value="" style="endArrow=classic;html=1;rounded=0;" parent="1" source="1HyrMnBhpy3HkWfxnY-A-5" target="1HyrMnBhpy3HkWfxnY-A-16" edge="1">
          <mxGeometry width="50" height="50" relative="1" as="geometry">
            <mxPoint x="420" y="305" as="sourcePoint" />
            <mxPoint x="488" y="305" as="targetPoint" />
          </mxGeometry>
        </mxCell>
        <mxCell id="1HyrMnBhpy3HkWfxnY-A-22" value="" style="shape=flexArrow;endArrow=classic;html=1;rounded=0;" parent="1" edge="1">
          <mxGeometry width="50" height="50" relative="1" as="geometry">
            <mxPoint x="503" y="598" as="sourcePoint" />
            <mxPoint x="503" y="563" as="targetPoint" />
          </mxGeometry>
        </mxCell>
        <mxCell id="1HyrMnBhpy3HkWfxnY-A-23" value="&lt;i&gt;Sink limitations&lt;/i&gt;" style="text;html=1;strokeColor=none;fillColor=none;align=center;verticalAlign=middle;whiteSpace=wrap;rounded=0;" parent="1" vertex="1">
          <mxGeometry x="472" y="600" width="60" height="30" as="geometry" />
        </mxCell>
        <mxCell id="1HyrMnBhpy3HkWfxnY-A-24" value="&lt;b&gt;Sapwood growth&lt;/b&gt;" style="rounded=0;whiteSpace=wrap;html=1;fillColor=#dae8fc;strokeColor=#6c8ebf;" parent="1" vertex="1">
          <mxGeometry x="480" y="527" width="110" height="35" as="geometry" />
        </mxCell>
        <mxCell id="1HyrMnBhpy3HkWfxnY-A-25" value="" style="endArrow=classic;html=1;rounded=0;" parent="1" source="1HyrMnBhpy3HkWfxnY-A-30" target="1HyrMnBhpy3HkWfxnY-A-24" edge="1">
          <mxGeometry width="50" height="50" relative="1" as="geometry">
            <mxPoint x="360" y="510" as="sourcePoint" />
            <mxPoint x="490" y="425" as="targetPoint" />
          </mxGeometry>
        </mxCell>
        <mxCell id="1HyrMnBhpy3HkWfxnY-A-26" value="" style="shape=flexArrow;endArrow=classic;html=1;rounded=0;" parent="1" edge="1">
          <mxGeometry width="50" height="50" relative="1" as="geometry">
            <mxPoint x="565" y="599" as="sourcePoint" />
            <mxPoint x="565" y="563" as="targetPoint" />
          </mxGeometry>
        </mxCell>
        <mxCell id="1HyrMnBhpy3HkWfxnY-A-27" value="&lt;i&gt;C storage levels&lt;/i&gt;" style="text;html=1;strokeColor=none;fillColor=none;align=center;verticalAlign=middle;whiteSpace=wrap;rounded=0;" parent="1" vertex="1">
          <mxGeometry x="537" y="600" width="60" height="30" as="geometry" />
        </mxCell>
        <mxCell id="1HyrMnBhpy3HkWfxnY-A-28" value="" style="shape=flexArrow;endArrow=classic;html=1;rounded=0;" parent="1" edge="1">
          <mxGeometry width="50" height="50" relative="1" as="geometry">
            <mxPoint x="507" y="262" as="sourcePoint" />
            <mxPoint x="507" y="305" as="targetPoint" />
          </mxGeometry>
        </mxCell>
        <mxCell id="1HyrMnBhpy3HkWfxnY-A-29" value="&lt;i&gt;Sink limitations&lt;/i&gt;" style="text;html=1;strokeColor=none;fillColor=none;align=center;verticalAlign=middle;whiteSpace=wrap;rounded=0;" parent="1" vertex="1">
          <mxGeometry x="477" y="230" width="60" height="30" as="geometry" />
        </mxCell>
        <mxCell id="1HyrMnBhpy3HkWfxnY-A-30" value="Maximum growth rate" style="text;html=1;strokeColor=none;fillColor=none;align=center;verticalAlign=middle;whiteSpace=wrap;rounded=0;" parent="1" vertex="1">
          <mxGeometry x="171" y="529" width="70" height="30" as="geometry" />
        </mxCell>
        <mxCell id="1HyrMnBhpy3HkWfxnY-A-31" value="&lt;b&gt;Leaf aging&lt;/b&gt;" style="rounded=0;whiteSpace=wrap;html=1;fillColor=#6d8764;fontColor=#ffffff;strokeColor=#3A5431;" parent="1" vertex="1">
          <mxGeometry x="910" y="289" width="100" height="30" as="geometry" />
        </mxCell>
        <mxCell id="1HyrMnBhpy3HkWfxnY-A-32" value="&lt;b&gt;Leaf area dynamics&lt;/b&gt;" style="ellipse;whiteSpace=wrap;html=1;aspect=fixed;fillColor=#60a917;strokeColor=#2D7600;fontColor=#ffffff;" parent="1" vertex="1">
          <mxGeometry x="634" y="286" width="80" height="80" as="geometry" />
        </mxCell>
        <mxCell id="1HyrMnBhpy3HkWfxnY-A-33" value="" style="endArrow=classic;html=1;rounded=0;" parent="1" source="1HyrMnBhpy3HkWfxnY-A-14" target="1HyrMnBhpy3HkWfxnY-A-32" edge="1">
          <mxGeometry width="50" height="50" relative="1" as="geometry">
            <mxPoint x="420" y="305" as="sourcePoint" />
            <mxPoint x="488" y="305" as="targetPoint" />
          </mxGeometry>
        </mxCell>
        <mxCell id="1HyrMnBhpy3HkWfxnY-A-34" value="" style="endArrow=classic;html=1;rounded=0;" parent="1" source="1HyrMnBhpy3HkWfxnY-A-31" target="1HyrMnBhpy3HkWfxnY-A-65" edge="1">
          <mxGeometry width="50" height="50" relative="1" as="geometry">
            <mxPoint x="598" y="292" as="sourcePoint" />
            <mxPoint x="644" y="292" as="targetPoint" />
          </mxGeometry>
        </mxCell>
        <mxCell id="1HyrMnBhpy3HkWfxnY-A-35" value="&lt;b&gt;Sapwood&lt;br&gt;&amp;nbsp;area dynamics&lt;/b&gt;" style="ellipse;whiteSpace=wrap;html=1;aspect=fixed;fillColor=#1ba1e2;strokeColor=#006EAF;fontColor=#ffffff;" parent="1" vertex="1">
          <mxGeometry x="640" y="506" width="80" height="80" as="geometry" />
        </mxCell>
        <mxCell id="1HyrMnBhpy3HkWfxnY-A-36" value="" style="endArrow=classic;html=1;rounded=0;" parent="1" source="1HyrMnBhpy3HkWfxnY-A-12" target="1HyrMnBhpy3HkWfxnY-A-35" edge="1">
          <mxGeometry width="50" height="50" relative="1" as="geometry">
            <mxPoint x="598" y="350" as="sourcePoint" />
            <mxPoint x="642.6000989472948" y="495.8138306351809" as="targetPoint" />
          </mxGeometry>
        </mxCell>
        <mxCell id="1HyrMnBhpy3HkWfxnY-A-37" value="" style="endArrow=classic;html=1;rounded=0;" parent="1" source="1HyrMnBhpy3HkWfxnY-A-24" target="1HyrMnBhpy3HkWfxnY-A-35" edge="1">
          <mxGeometry width="50" height="50" relative="1" as="geometry">
            <mxPoint x="592" y="478" as="sourcePoint" />
            <mxPoint x="653" y="504" as="targetPoint" />
          </mxGeometry>
        </mxCell>
        <mxCell id="1HyrMnBhpy3HkWfxnY-A-38" value="&lt;i&gt;Leaf phenology&lt;/i&gt;" style="text;html=1;strokeColor=none;fillColor=none;align=center;verticalAlign=middle;whiteSpace=wrap;rounded=0;" parent="1" vertex="1">
          <mxGeometry x="924" y="221" width="70" height="30" as="geometry" />
        </mxCell>
        <mxCell id="1HyrMnBhpy3HkWfxnY-A-42" value="&lt;b&gt;Fine root&lt;br&gt;biomass dynamics&lt;/b&gt;" style="ellipse;whiteSpace=wrap;html=1;aspect=fixed;fillColor=#a0522d;strokeColor=#6D1F00;fontColor=#ffffff;" parent="1" vertex="1">
          <mxGeometry x="639" y="128" width="80" height="80" as="geometry" />
        </mxCell>
        <mxCell id="1HyrMnBhpy3HkWfxnY-A-43" value="" style="endArrow=classic;html=1;rounded=0;" parent="1" source="1HyrMnBhpy3HkWfxnY-A-16" target="1HyrMnBhpy3HkWfxnY-A-42" edge="1">
          <mxGeometry width="50" height="50" relative="1" as="geometry">
            <mxPoint x="598" y="305" as="sourcePoint" />
            <mxPoint x="644" y="305" as="targetPoint" />
          </mxGeometry>
        </mxCell>
        <mxCell id="1HyrMnBhpy3HkWfxnY-A-44" value="&lt;b&gt;Fine root aging&lt;/b&gt;" style="rounded=0;whiteSpace=wrap;html=1;fillColor=#6d8764;fontColor=#ffffff;strokeColor=#3A5431;" parent="1" vertex="1">
          <mxGeometry x="910" y="153" width="100" height="30" as="geometry" />
        </mxCell>
        <mxCell id="1HyrMnBhpy3HkWfxnY-A-46" value="" style="endArrow=classic;html=1;rounded=0;" parent="1" source="1HyrMnBhpy3HkWfxnY-A-44" target="1HyrMnBhpy3HkWfxnY-A-67" edge="1">
          <mxGeometry width="50" height="50" relative="1" as="geometry">
            <mxPoint x="600" y="179" as="sourcePoint" />
            <mxPoint x="649" y="178" as="targetPoint" />
          </mxGeometry>
        </mxCell>
        <mxCell id="1HyrMnBhpy3HkWfxnY-A-50" value="" style="endArrow=classic;html=1;rounded=0;" parent="1" source="1HyrMnBhpy3HkWfxnY-A-62" target="1HyrMnBhpy3HkWfxnY-A-32" edge="1">
          <mxGeometry width="50" height="50" relative="1" as="geometry">
            <mxPoint x="789.1142884251833" y="379" as="sourcePoint" />
            <mxPoint x="825" y="313" as="targetPoint" />
          </mxGeometry>
        </mxCell>
        <mxCell id="1HyrMnBhpy3HkWfxnY-A-51" value="&lt;i&gt;Leaf phenology&lt;/i&gt;" style="text;html=1;strokeColor=none;fillColor=none;align=center;verticalAlign=middle;whiteSpace=wrap;rounded=0;" parent="1" vertex="1">
          <mxGeometry x="499" y="380" width="70" height="31" as="geometry" />
        </mxCell>
        <mxCell id="1HyrMnBhpy3HkWfxnY-A-52" value="" style="shape=flexArrow;endArrow=classic;html=1;rounded=0;" parent="1" edge="1">
          <mxGeometry width="50" height="50" relative="1" as="geometry">
            <mxPoint x="534" y="380" as="sourcePoint" />
            <mxPoint x="534" y="337" as="targetPoint" />
          </mxGeometry>
        </mxCell>
        <mxCell id="1HyrMnBhpy3HkWfxnY-A-53" value="" style="shape=flexArrow;endArrow=classic;html=1;rounded=0;exitX=0.611;exitY=-0.033;exitDx=0;exitDy=0;exitPerimeter=0;" parent="1" edge="1">
          <mxGeometry width="50" height="50" relative="1" as="geometry">
            <mxPoint x="506.65999999999997" y="225.01" as="sourcePoint" />
            <mxPoint x="507" y="186" as="targetPoint" />
          </mxGeometry>
        </mxCell>
        <mxCell id="1HyrMnBhpy3HkWfxnY-A-56" value="" style="shape=flexArrow;endArrow=classic;html=1;rounded=0;exitX=0.5;exitY=1;exitDx=0;exitDy=0;" parent="1" source="1HyrMnBhpy3HkWfxnY-A-38" edge="1">
          <mxGeometry width="50" height="50" relative="1" as="geometry">
            <mxPoint x="959" y="260" as="sourcePoint" />
            <mxPoint x="959" y="288" as="targetPoint" />
          </mxGeometry>
        </mxCell>
        <mxCell id="1HyrMnBhpy3HkWfxnY-A-59" value="" style="endArrow=classic;html=1;rounded=0;" parent="1" source="1HyrMnBhpy3HkWfxnY-A-63" target="1HyrMnBhpy3HkWfxnY-A-65" edge="1">
          <mxGeometry width="50" height="50" relative="1" as="geometry">
            <mxPoint x="782.3991980379992" y="335" as="sourcePoint" />
            <mxPoint x="724" y="292" as="targetPoint" />
          </mxGeometry>
        </mxCell>
        <mxCell id="1HyrMnBhpy3HkWfxnY-A-60" value="&lt;b&gt;Sapwood aging&lt;/b&gt;" style="rounded=0;whiteSpace=wrap;html=1;fillColor=#6d8764;fontColor=#ffffff;strokeColor=#3A5431;" parent="1" vertex="1">
          <mxGeometry x="911" y="439" width="99" height="30" as="geometry" />
        </mxCell>
        <mxCell id="1HyrMnBhpy3HkWfxnY-A-61" value="" style="endArrow=classic;html=1;rounded=0;" parent="1" source="1HyrMnBhpy3HkWfxnY-A-60" target="1HyrMnBhpy3HkWfxnY-A-12" edge="1">
          <mxGeometry width="50" height="50" relative="1" as="geometry">
            <mxPoint x="608" y="506" as="sourcePoint" />
            <mxPoint x="724" y="496" as="targetPoint" />
          </mxGeometry>
        </mxCell>
        <mxCell id="1HyrMnBhpy3HkWfxnY-A-62" value="&lt;b&gt;Foliage burning&lt;/b&gt;" style="rounded=0;whiteSpace=wrap;html=1;fillColor=#6d8764;fontColor=#ffffff;strokeColor=#3A5431;" parent="1" vertex="1">
          <mxGeometry x="911" y="373" width="99" height="30" as="geometry" />
        </mxCell>
        <mxCell id="1HyrMnBhpy3HkWfxnY-A-63" value="&lt;b&gt;Leaf dessication&lt;/b&gt;" style="rounded=0;whiteSpace=wrap;html=1;fillColor=#6d8764;fontColor=#ffffff;strokeColor=#3A5431;" parent="1" vertex="1">
          <mxGeometry x="910" y="333" width="100" height="30" as="geometry" />
        </mxCell>
        <mxCell id="1HyrMnBhpy3HkWfxnY-A-65" value="&lt;b&gt;Leaf&lt;br&gt;&amp;nbsp;senescence&lt;/b&gt;" style="rounded=0;whiteSpace=wrap;html=1;fillColor=#97D077;strokeColor=#537341;" parent="1" vertex="1">
          <mxGeometry x="772" y="302" width="84" height="40" as="geometry" />
        </mxCell>
        <mxCell id="1HyrMnBhpy3HkWfxnY-A-66" value="" style="endArrow=classic;html=1;rounded=0;" parent="1" source="1HyrMnBhpy3HkWfxnY-A-65" target="1HyrMnBhpy3HkWfxnY-A-32" edge="1">
          <mxGeometry width="50" height="50" relative="1" as="geometry">
            <mxPoint x="780" y="314" as="sourcePoint" />
            <mxPoint x="723" y="327" as="targetPoint" />
          </mxGeometry>
        </mxCell>
        <mxCell id="1HyrMnBhpy3HkWfxnY-A-67" value="&lt;b&gt;Fine root&lt;br&gt;&amp;nbsp;senescence&lt;/b&gt;" style="rounded=0;whiteSpace=wrap;html=1;fillColor=#ffe6cc;strokeColor=#d79b00;" parent="1" vertex="1">
          <mxGeometry x="776" y="149" width="84" height="40" as="geometry" />
        </mxCell>
        <mxCell id="1HyrMnBhpy3HkWfxnY-A-69" value="" style="endArrow=classic;html=1;rounded=0;" parent="1" source="1HyrMnBhpy3HkWfxnY-A-67" target="1HyrMnBhpy3HkWfxnY-A-42" edge="1">
          <mxGeometry width="50" height="50" relative="1" as="geometry">
            <mxPoint x="914" y="173" as="sourcePoint" />
            <mxPoint x="870" y="173" as="targetPoint" />
          </mxGeometry>
        </mxCell>
        <mxCell id="1HyrMnBhpy3HkWfxnY-A-73" value="&lt;i&gt;Leaf phenology&lt;/i&gt;" style="text;html=1;strokeColor=none;fillColor=none;align=center;verticalAlign=middle;whiteSpace=wrap;rounded=0;" parent="1" vertex="1">
          <mxGeometry x="472" y="462" width="70" height="30" as="geometry" />
        </mxCell>
        <mxCell id="1HyrMnBhpy3HkWfxnY-A-74" value="" style="shape=flexArrow;endArrow=classic;html=1;rounded=0;exitX=0.5;exitY=1;exitDx=0;exitDy=0;entryX=0.5;entryY=0;entryDx=0;entryDy=0;" parent="1" edge="1">
          <mxGeometry width="50" height="50" relative="1" as="geometry">
            <mxPoint x="507" y="492" as="sourcePoint" />
            <mxPoint x="507" y="527" as="targetPoint" />
          </mxGeometry>
        </mxCell>
        <mxCell id="vOK00NILXzaMB6cu8Ia9-1" value="&lt;b&gt;Diameter increase&lt;/b&gt;" style="rounded=0;whiteSpace=wrap;html=1;fillColor=#6d8764;fontColor=#ffffff;strokeColor=#3A5431;" parent="1" vertex="1">
          <mxGeometry x="52" y="637" width="80" height="60" as="geometry" />
        </mxCell>
        <mxCell id="vOK00NILXzaMB6cu8Ia9-2" value="" style="endArrow=classic;html=1;rounded=0;" parent="1" source="vOK00NILXzaMB6cu8Ia9-1" target="1HyrMnBhpy3HkWfxnY-A-11" edge="1">
          <mxGeometry width="50" height="50" relative="1" as="geometry">
            <mxPoint x="251" y="554" as="sourcePoint" />
            <mxPoint x="490" y="554" as="targetPoint" />
          </mxGeometry>
        </mxCell>
        <mxCell id="vOK00NILXzaMB6cu8Ia9-3" value="" style="endArrow=classic;html=1;rounded=0;exitX=0.5;exitY=1;exitDx=0;exitDy=0;" parent="1" source="1HyrMnBhpy3HkWfxnY-A-24" target="vOK00NILXzaMB6cu8Ia9-1" edge="1">
          <mxGeometry width="50" height="50" relative="1" as="geometry">
            <mxPoint x="560" y="460" as="sourcePoint" />
            <mxPoint x="610" y="410" as="targetPoint" />
            <Array as="points">
              <mxPoint x="535" y="667" />
            </Array>
          </mxGeometry>
        </mxCell>
        <mxCell id="vOK00NILXzaMB6cu8Ia9-6" value="&lt;b&gt;Empirical constrains&lt;/b&gt;" style="text;html=1;strokeColor=none;fillColor=none;align=center;verticalAlign=middle;whiteSpace=wrap;rounded=0;" parent="1" vertex="1">
          <mxGeometry x="171" y="250" width="70" height="30" as="geometry" />
        </mxCell>
        <mxCell id="vOK00NILXzaMB6cu8Ia9-8" value="" style="shape=flexArrow;endArrow=classic;html=1;rounded=0;" parent="1" edge="1">
          <mxGeometry width="50" height="50" relative="1" as="geometry">
            <mxPoint x="569" y="262" as="sourcePoint" />
            <mxPoint x="569" y="305" as="targetPoint" />
          </mxGeometry>
        </mxCell>
        <mxCell id="vOK00NILXzaMB6cu8Ia9-9" value="&lt;i&gt;C storage levels&lt;/i&gt;" style="text;html=1;strokeColor=none;fillColor=none;align=center;verticalAlign=middle;whiteSpace=wrap;rounded=0;" parent="1" vertex="1">
          <mxGeometry x="539" y="230" width="60" height="30" as="geometry" />
        </mxCell>
        <mxCell id="vOK00NILXzaMB6cu8Ia9-10" value="" style="shape=flexArrow;endArrow=classic;html=1;rounded=0;exitX=0.611;exitY=-0.033;exitDx=0;exitDy=0;exitPerimeter=0;" parent="1" edge="1">
          <mxGeometry width="50" height="50" relative="1" as="geometry">
            <mxPoint x="568.66" y="225.01" as="sourcePoint" />
            <mxPoint x="569" y="186" as="targetPoint" />
          </mxGeometry>
        </mxCell>
        <mxCell id="ZWqLUMIfDh4Yo-QDpb2u-1" value="&lt;i&gt;Plant competition&lt;br&gt;&lt;/i&gt;" style="text;html=1;strokeColor=none;fillColor=none;align=center;verticalAlign=middle;whiteSpace=wrap;rounded=0;" vertex="1" parent="1">
          <mxGeometry x="534" y="462" width="70" height="30" as="geometry" />
        </mxCell>
        <mxCell id="ZWqLUMIfDh4Yo-QDpb2u-2" value="" style="shape=flexArrow;endArrow=classic;html=1;rounded=0;exitX=0.5;exitY=1;exitDx=0;exitDy=0;entryX=0.5;entryY=0;entryDx=0;entryDy=0;" edge="1" parent="1">
          <mxGeometry width="50" height="50" relative="1" as="geometry">
            <mxPoint x="568" y="492" as="sourcePoint" />
            <mxPoint x="568" y="527" as="targetPoint" />
          </mxGeometry>
        </mxCell>
      </root>
    </mxGraphModel>
  </diagram>
</mxfile>
